<?xml version="1.0" encoding="utf-8"?>
<!-- Generator: Adobe Illustrator 27.5.0, SVG Export Plug-In . SVG Version: 6.00 Build 0)  -->
<svg version="1.1" id="Layer_1" xmlns="http://www.w3.org/2000/svg" xmlns:xlink="http://www.w3.org/1999/xlink" x="0px" y="0px"
	 viewBox="0 0 1080.1 468.6" style="enable-background:new 0 0 1080.1 468.6;" xml:space="preserve">
<style type="text/css">
	.st0{fill:#26458D;}
	.st1{fill:#27458D;}
	.st2{fill:#555555;}
	.st3{fill:#F05B21;}
</style>
<g>
	<path class="st0" d="M12.7,157.1c38.8,0,77.5,0,116.2,0c0.4,1.4,0.6,308.2,0.1,311.4c-38.7,0-77.5,0-116.4,0
		C12.7,364.7,12.7,261.1,12.7,157.1z"/>
	<g>
		<path class="st1" d="M70.2,0C31.4,0,0,31.4,0,70.2s31.4,70.2,70.2,70.2s70.2-31.4,70.2-70.2S109,0,70.2,0z M84.1,118.1
			c-18.3-0.3-36.1-15.1-36-36.8C48.2,60.9,64.7,44.8,85,44.9c20.4,0.1,36.3,16.6,36.4,36.7C121.1,103.3,103.1,118.4,84.1,118.1z"/>
	</g>
	<path class="st2" d="M533.8,373.4c-0.3,0.1-0.4,0.2-0.6,0.2c-6.9,0-13.7,0-20.6,0c-0.2,0-0.3-0.1-0.6-0.2c0-0.6-0.1-1.2-0.1-1.9
		c0-10.7,0-21.4,0-32.2c0-2,0-4-0.3-5.9c-0.2-1.5-0.6-3-1.2-4.4c-1.1-2.5-3-3.8-5.7-3.9c-4.3-0.2-7.3,1.6-9,5.3
		c-1,2.2-1.4,4.4-1.7,6.8c-0.3,2.5-0.4,5.1-0.4,7.7c0,8.9,0,17.7,0,26.6c0,0.6,0,1.3-0.1,2c-0.3,0.1-0.6,0.1-0.9,0.1
		c-6.7,0-13.4,0-20.1,0c-0.2,0-0.5-0.1-0.8-0.1c-0.1-0.3-0.1-0.7-0.2-1c0-0.4,0-0.8,0-1.2c0-20.1,0-40.2,0-60.3c0-0.7,0-1.4,0-2.1
		c0.4-0.1,0.7-0.2,0.9-0.2c5.2,0,10.3-0.1,15.6,0c0.9,2.7,1.8,5.2,2.7,7.8c0.8,0.3,1.3,0.2,1.8-0.5c3.3-4.9,8.2-7.2,13.9-8.1
		c3.5-0.6,7.1-0.5,10.6,0.2c8.3,1.7,13.3,6.8,15.5,14.8c0.8,2.8,1,5.6,1,8.5c0,10.8,0,21.7,0,32.5c0,2.7,0,5.4,0,8
		C533.9,372.4,533.8,372.9,533.8,373.4z"/>
	<path class="st2" d="M724.6,402.8c0.2,0,0.5-0.1,0.7-0.1c6.9,0,13.9,0,20.9,0c0.1,0.5,0.2,1,0.2,1.4c0,2.2,0,4.3,0,6.5
		c0,8.9,0,17.8,0,26.7c0,2.3,0,4.6,0.5,6.8c0.2,1,0.5,1.9,0.8,2.8c1.1,2.8,3.3,4.2,6.2,4.2c1,0,2-0.1,2.9-0.4c2.2-0.6,3.8-1.9,5-3.9
		c0.7-1.2,1.1-2.4,1.4-3.7c0.7-2.7,1-5.4,1.1-8.1c0.1-2.9,0.1-5.7,0.1-8.6c0-7.2,0-14.4,0-21.7c0-0.6,0-1.3,0.1-1.7
		c0.2-0.2,0.2-0.3,0.3-0.3c0,0,0.1,0,0.2,0c6.8,0,13.5,0,20.3-0.1c0.3,0,0.6,0,0.9,0.1c0,0,0.1,0.1,0.2,0.2c0,0.2,0.1,0.6,0.1,0.9
		c0.2,9.5,0.1,61.8-0.2,63.7c-1.8,0.3-3.5,0.1-5.3,0.1s-3.6,0-5.4,0c-1.8,0-3.6,0-5.4,0c-0.8-1.2-1-2.6-1.5-3.9s-0.9-2.6-1.4-3.9
		c-0.8-0.4-1.3-0.2-1.8,0.5c-3.3,4.8-8.1,7.2-13.7,8.1c-3.9,0.6-7.8,0.6-11.6-0.3c-7-1.7-11.7-6-14.1-12.8c-0.9-2.4-1.3-5-1.4-7.5
		c-0.1-1-0.1-2-0.1-3c0-13.3,0-26.7,0-40C724.4,404.1,724.3,403.4,724.6,402.8z"/>
	<path class="st2" d="M709.5,467.4c-1.5,0.3-19.7,0.3-21.7,0.1c-0.1-0.3-0.2-0.6-0.2-1c0-0.5,0-1,0-1.6c0-10.5,0-21.1,0-31.6
		c0-2.3,0-4.7-0.5-7c-0.3-1.2-0.6-2.4-1.1-3.5c-1.1-2.4-3-3.7-5.6-3.8c-4.4-0.2-7.3,1.7-8.9,5.4c-0.5,1.2-0.9,2.4-1.1,3.7
		c-0.8,3.5-0.9,7.2-0.9,10.8c0,8.8,0,17.6,0,26.4c0,0.7,0,1.4,0,2.1c-0.4,0.1-0.6,0.2-0.9,0.2c-6.6,0-13.3,0-19.9,0
		c-0.3,0-0.6-0.1-0.9-0.1c0-0.5-0.1-1-0.1-1.4c-0.2-15.8-0.1-61.6,0.2-63.2l0.1-0.1c0,0,0.1-0.1,0.2-0.1c4.8,0,9.7,0,14.5-0.1
		c0.5,0,0.9,0,1.5,0c1.2,2.6,1.8,5.3,2.9,7.9c0.4,0,0.8,0,1.2,0c0.1-0.2,0.3-0.3,0.4-0.5c2.4-3.5,5.6-5.8,9.6-7.1
		c5.4-1.8,10.9-1.9,16.4-0.5c6.8,1.8,11.2,6.1,13.6,12.7c0.9,2.4,1.3,5,1.4,7.5c0.1,1,0.1,2.1,0.1,3.1c0,13.3,0,26.6,0,39.8
		C709.5,466.2,709.5,466.7,709.5,467.4z"/>
	<path class="st2" d="M761.5,332.2c0.2-1.5,0.1-2.7-0.3-4c-0.7-2.7-2.5-4.2-5.3-4.7c-2.1-0.4-4.2-0.1-6.3,0.2c-4,0.7-7.8,2-11.5,3.6
		c-0.6,0.2-1.2,0.5-1.8,0.7c0,0-0.1,0-0.2,0c-0.9-1.3-5.9-13.2-6.2-14.6c0.4-0.5,1.1-0.7,1.6-0.9c3.6-1.7,7.4-2.8,11.3-3.6
		c5.4-1.1,10.8-1.5,16.3-1.3c3.7,0.1,7.3,0.6,10.8,2c7.6,3,11.9,8.7,13.1,16.7c0.2,1.6,0.3,3.2,0.3,4.9c0,13.6,0,27.1,0,40.7
		c0,0.5,0,1-0.1,1.6c-0.3,0.1-0.5,0.2-0.7,0.2c-4.7,0-9.3,0-14,0c-0.1,0-0.2,0-0.5-0.1c-0.2-0.3-0.4-0.7-0.6-1.1c-1-2-2-4.1-3-6.1
		c-0.2-0.4-0.5-0.8-0.8-1.3c-0.4,0.4-0.7,0.6-1,0.9c-1.2,1.2-2.4,2.6-3.7,3.7c-2.7,2.5-6,4-9.6,4.6c-3.1,0.5-6.1,0.7-9.2,0.5
		c-8-0.6-14.2-5.4-16.2-13.5c-1.1-4.4-1.2-8.8-0.2-13.1c1-4.3,3.4-7.7,7.1-10.2c2.8-1.8,5.8-3,9-3.7c3.7-0.9,7.4-1.4,11.2-1.5
		c3-0.1,6.1-0.2,9.1-0.3C760.8,332.3,761.1,332.3,761.5,332.2z M761.5,344.7c-0.2,0-0.5-0.1-0.8-0.1c-1.7,0.1-3.5,0.1-5.2,0.3
		c-1.6,0.1-3.2,0.4-4.8,1c-3.9,1.5-5.6,4.9-4.7,9c0.5,2.3,2,3.5,4.2,3.9c1.8,0.3,3.6,0.3,5.3-0.4c3.5-1.3,5.8-3.7,6.1-7.6
		c0.2-1.9,0.1-3.8,0.1-5.7C761.7,345,761.6,344.9,761.5,344.7z"/>
	<path class="st2" d="M443.7,422c-0.2-0.4-0.4-0.7-0.5-1c-1.9-4.5-3.9-9.1-5.8-13.7c0.7-0.3,1.2-0.6,1.8-0.9c4-1.9,8.3-3.1,12.7-3.8
		c5.1-0.9,10.2-1.2,15.3-1.1c3.6,0.1,7.2,0.7,10.6,2c7.3,3,11.6,8.4,12.9,16.1c0.3,1.6,0.4,3.2,0.4,4.9c0,13.9,0,27.7,0,41.6
		c0,0.4,0,0.8-0.1,1.3c-0.3,0.1-0.6,0.2-0.8,0.2c-4.5,0-9.1,0-13.6,0c-0.2,0-0.3-0.1-0.6-0.1c-0.2-0.4-0.5-0.7-0.7-1.2
		c-1-2-2-4.1-3-6.1c-0.2-0.4-0.5-0.8-0.8-1.3c-0.3,0.3-0.6,0.5-0.8,0.7c-1.1,1.2-2.2,2.4-3.4,3.5c-3,2.8-6.5,4.4-10.6,5
		c-2.9,0.5-5.9,0.6-8.9,0.4c-4.8-0.4-8.9-2.2-12.1-5.8c-2-2.2-3.2-4.8-3.9-7.7c-1-4.2-1.2-8.5-0.3-12.8c1-4.5,3.4-8,7.2-10.5
		c3.2-2.1,6.7-3.3,10.4-4c3.1-0.7,6.2-1,9.4-1.1c3.1-0.1,6.2-0.2,9.3-0.3c0.4,0,0.8-0.1,1.1-0.1c1-4.1-1.3-7.9-5.2-8.7
		c-1.5-0.3-3-0.3-4.5-0.1c-4.1,0.5-8.1,1.7-11.9,3.2C446,421.1,444.9,421.5,443.7,422z M469.2,438.8c-0.4-0.1-0.6-0.1-0.8-0.1
		c-2.2,0.1-4.4,0.2-6.6,0.4c-1.6,0.2-3.2,0.6-4.7,1.4c-1.7,0.9-2.9,2.2-3.4,4c-0.5,1.6-0.5,3.2-0.1,4.8c0.5,1.7,1.6,2.8,3.2,3.4
		c1.2,0.4,2.4,0.4,3.6,0.3c3.7-0.2,8.2-2.9,8.7-8.3C469.3,442.8,469.2,440.8,469.2,438.8z"/>
	<path class="st2" d="M1079.9,347.2c-4.5,0-8.8,0-13.1,0c-4.3,0-8.6,0-12.9,0s-8.6,0-12.8,0c-0.4,0.5-0.3,1-0.2,1.3
		c0.5,4.2,2.7,7.1,6.5,8.9c2.1,1,4.4,1.4,6.8,1.4c6.9,0.1,13.4-1.2,19.7-4c0.6-0.3,1.2-0.5,1.7-0.7c0.2,0.1,0.2,0.1,0.3,0.2
		c0,0,0.1,0.1,0.1,0.2c0,5.1,0,10.2,0,15.5c-0.4,0.2-0.8,0.5-1.2,0.7c-4.1,2-8.4,3.2-12.9,3.6c-2.7,0.3-5.3,0.4-8,0.5
		c-5.2,0.1-10.4-0.3-15.3-2c-10.2-3.5-16.4-10.6-18.8-21c-1.2-5.1-1.3-10.3-0.8-15.5c0.3-3.6,1-7.2,2.2-10.6
		c2.2-5.9,5.8-10.7,11.3-14c3-1.8,6.2-2.9,9.6-3.6c5.9-1.1,11.7-1,17.5,0.3c3.9,0.9,7.5,2.4,10.7,4.9c4.3,3.4,7,7.8,8.5,13.1
		c0.9,3.2,1.2,6.4,1.3,9.7c0.1,3.3,0,6.5,0,9.8C1080,346.3,1079.9,346.6,1079.9,347.2z M1060,332.8c0-2.9-0.8-5.5-2.9-7.6
		c-1.4-1.4-3.1-2.2-5.1-2.4c-0.8-0.1-1.6-0.1-2.4,0c-2.4,0.2-4.5,1.3-6,3.2c-1.6,2-2.1,4.3-2.3,6.8c0.3,0.1,0.4,0.2,0.6,0.2
		c5.9,0,11.8,0,17.6,0C1059.6,333,1059.7,332.9,1060,332.8z"/>
	<path class="st2" d="M621.4,347.4c-0.1,1.9,0.4,3.6,1.2,5.2c1.3,2.5,3.4,4.1,6,5.1c1.8,0.7,3.7,1,5.6,1.1
		c6.4,0.2,12.5-0.8,18.4-3.3c0.9-0.4,1.8-0.8,2.7-1.2c0.3-0.1,0.5-0.1,0.8-0.2c0.2,1.4,0.2,13.9,0,15.9c-0.5,0.2-1,0.5-1.5,0.8
		c-4,1.9-8.3,3-12.7,3.5c-4.6,0.5-9.2,0.7-13.8,0.3c-3.9-0.3-7.6-1-11.2-2.5c-8.7-3.6-14.2-10.1-16.6-19.2
		c-1.2-4.7-1.6-9.5-1.3-14.4c0.2-3.4,0.6-6.8,1.6-10.2c0.3-1.1,0.7-2.2,1.1-3.3c3.5-8.8,9.8-14.3,19-16.5c4.5-1.1,9.1-1.3,13.7-0.9
		c2.3,0.2,4.6,0.5,6.9,1.2c9.6,2.7,15.7,9,18.1,18.7c0.7,2.7,1,5.5,1,8.3c0,3.4,0,6.8,0,10.1c0,0.3,0,0.6-0.1,1
		c-0.3,0.1-0.6,0.2-1,0.2c-0.5,0-1,0-1.6,0c-11.5,0-22.9,0-34.4,0C622.8,347.2,622.1,347.1,621.4,347.4z M640.6,332.9
		c-0.1-2.1-0.5-4-1.5-5.7c-1.3-2.3-3.2-3.7-5.7-4.2c-0.9-0.2-1.9-0.2-2.8-0.2c-3.7,0.2-6.4,2-7.8,5.4c-0.5,1.2-0.7,2.5-1,3.7
		c-0.1,0.3-0.2,0.7,0.1,1c1.5,0.2,13.4,0.3,17.6,0.1C639.8,333.1,640.1,333,640.6,332.9z"/>
	<path class="st2" d="M821.2,441.3c-0.3,0.6-0.1,1.1,0,1.7c0.7,4.3,3.2,7.1,7.2,8.7c2.1,0.8,4.3,1.1,6.5,1.1c6.6,0,13-1.2,19-4
		c0.6-0.3,1.3-0.5,2-0.9c0.3,1.9,0.1,3.6,0.2,5.3c0,1.7,0,3.5,0,5.2s0,3.5,0,5.3c-0.4,0.3-0.8,0.5-1.2,0.7
		c-3.5,1.7-7.2,2.8-11.1,3.4c-5.1,0.8-10.2,0.9-15.3,0.6c-4.2-0.2-8.3-1.1-12.2-2.8c-8.2-3.5-13.4-9.7-15.8-18.2
		c-0.9-3-1.4-6.1-1.5-9.3c-0.2-4.7,0-9.4,1.1-14.1c0.7-3.3,1.8-6.4,3.5-9.3c3.8-6.5,9.5-10.6,16.8-12.4c4.9-1.2,9.9-1.4,14.9-0.9
		c2.6,0.3,5.2,0.8,7.7,1.6c8.4,3,13.8,8.8,16.1,17.4c0.8,3,1.2,6.1,1.2,9.2c0,3.3,0,6.6,0,10c0,0.3-0.1,0.7-0.1,1
		c-0.7,0.3-1.3,0.2-2,0.2c-4.8,0-9.6,0-14.3,0c-6.9,0-13.9,0-20.8,0C822.5,441.1,821.8,441,821.2,441.3z M840.3,426.9
		c-0.1-3.8-1.2-7.1-4.7-9c-3.3-1.8-6.7-1.6-9.9,0.5c-2.7,1.7-4.4,5.7-3.9,8.6C823.2,427.1,838.4,427.1,840.3,426.9z"/>
	<path class="st2" d="M634.9,441.1c-2.3,0-4.5,0-6.6,0c-2.2,0-4.3,0-6.5,0s-4.3,0-6.5,0s-4.3,0-6.5,0s-4.3,0-6.5,0
		c-2.1,0-4.3,0-6.5,0c0,0.4-0.1,0.8-0.1,1.1c0.5,4.4,2.8,7.6,6.9,9.3c2.2,0.9,4.5,1.2,6.8,1.3c6.6,0,13-1.2,19-3.9
		c0.6-0.3,1.2-0.5,1.8-0.7c0,0,0.1,0,0.2,0c0.3,0.1,0.2,0.3,0.2,0.6c0,5,0,10,0,15.1c-0.3,0.2-0.6,0.5-1,0.6
		c-3.5,1.7-7.2,2.9-11.1,3.5c-5.1,0.8-10.2,0.9-15.3,0.7c-3.4-0.2-6.8-0.8-10.1-1.9c-9.3-3.2-15.4-9.6-18.2-19
		c-1-3.5-1.5-7.2-1.5-10.9c-0.1-5.3,0.3-10.5,1.9-15.5c0.8-2.7,2-5.2,3.5-7.6c3.9-5.9,9.3-9.5,16.1-11.1c4.9-1.2,9.9-1.3,14.9-0.8
		c2.3,0.2,4.6,0.7,6.8,1.4c9,2.9,14.6,9,17,18.1c0.7,2.7,1.1,5.5,1.1,8.3c0,3.5,0,7,0,10.5C635,440.3,635,440.6,634.9,441.1z
		 M615.1,426.9c0-2.5-0.6-4.7-2.1-6.7c-1.4-1.9-3.3-3-5.7-3.3c-0.9-0.1-1.8-0.1-2.6,0c-3.5,0.4-6,2.2-7.3,5.4
		c-0.5,1.2-0.7,2.5-1,3.7c-0.1,0.3-0.2,0.7,0.1,1c1.2,0.1,15.6,0.2,17.8,0.1C614.5,427,614.7,427,615.1,426.9z"/>
	<path class="st2" d="M943.5,308.8c0.8-0.1,1.2-0.1,1.7-0.1c11.2-0.1,19.7-0.1,21.2,0.2c0.2,0.5,0.3,1.1,0.5,1.6
		c3.3,11.8,6.6,23.7,10,35.5c0.6,2.2,1.1,4.4,1.3,6.7c0,0.2,0.1,0.4,0.1,0.6c0.5-0.3,0.4-0.7,0.4-1c0.1-1.8,0.5-3.5,1-5.1
		c3.6-12.3,7.2-24.6,10.8-36.9c0.1-0.5,0.3-1,0.5-1.4c1.3-0.2,18.9-0.4,21.9-0.2c0.2,0,0.4,0.1,0.7,0.2c-0.1,0.3-0.1,0.6-0.2,0.9
		c-7.9,21.3-15.9,42.5-23.8,63.7c-1.7,0.2-11.9,0.3-20.6,0.2c-0.4,0-0.8-0.1-1.3-0.1C959.6,352,951.6,330.5,943.5,308.8z"/>
	<path class="st2" d="M498.8,402.7c7.5,0,14.9,0,22.5,0c0.2,0.5,0.3,0.9,0.5,1.3c3.4,12.2,6.9,24.4,10.3,36.6c0.4,1.6,0.7,3.3,1,5
		c0.1,0.6,0.1,1.1,0.6,1.9c0.1-3.5,1.1-6.6,2-9.6c0.8-2.6,1.5-5.2,2.3-7.9c2.5-8.5,5-17,7.5-25.5c0.2-0.6,0.4-1.2,0.6-1.8
		c1.5-0.2,21-0.2,22.6,0c0,0.2,0,0.5-0.1,0.7c-8,21.4-15.9,42.7-23.9,64.1c-7.3,0-14.4,0-21.5,0c-0.1-0.1-0.1-0.1-0.2-0.2l-0.1-0.1
		c-7.9-21.1-15.8-42.2-23.7-63.3c-0.1-0.3-0.2-0.6-0.3-0.8c0-0.1,0-0.1,0-0.2C498.7,402.9,498.7,402.9,498.8,402.7z"/>
	<path class="st2" d="M921.2,407c-0.3,1.4-5.1,12.9-5.9,14.3c-0.6-0.2-1.1-0.4-1.7-0.7c-3.7-1.5-7.4-2.8-11.3-3.6
		c-2.2-0.4-4.5-0.7-6.8-0.2c-0.4,0.1-0.8,0.2-1.2,0.4c-1.6,0.7-2.1,2.3-1,3.7c0.4,0.5,1,1,1.6,1.3c0.7,0.5,1.5,0.8,2.3,1.2
		c2.5,1.1,5,2.2,7.6,3.2c2.4,1,4.8,2.1,7.1,3.4c1,0.6,2,1.2,2.9,1.9c4.1,3.1,6.3,7.2,6.8,12.3c0.3,2.9,0.3,5.8-0.3,8.7
		c-1,5.1-3.7,9-8.2,11.7c-2.8,1.7-5.8,2.7-9,3.3c-2.4,0.5-4.8,0.7-7.3,0.8c-4.8,0.1-9.5,0-14.3-0.7c-3.4-0.5-6.7-1.4-10-2.6
		c-0.2-0.1-0.4-0.2-0.6-0.3c0-0.2-0.1-0.5-0.1-0.7c0-5.5,0-11.1,0-16.6c0-0.1,0.1-0.2,0.2-0.4c0.4,0.1,0.9,0.3,1.3,0.4
		c4.9,2,10,3.5,15.3,4.2c2.8,0.4,5.7,0.7,8.5,0.1c0.8-0.2,1.7-0.4,2.5-0.8c1.5-0.8,1.8-2.5,0.9-3.9c-0.5-0.7-1.1-1.2-1.8-1.6
		c-0.9-0.5-1.7-1-2.6-1.4c-2.7-1.2-5.4-2.3-8-3.5c-2-0.9-4-1.8-6-2.9c-1.2-0.7-2.4-1.5-3.5-2.3c-4-3-6.1-7-6.7-11.8
		c-0.3-2.6-0.3-5.2,0.2-7.8c0.8-3.7,2.7-6.8,5.7-9.2c2.8-2.3,6.1-3.7,9.6-4.5c5.2-1.2,10.4-1.3,15.6-0.9c6,0.5,11.6,2.4,17.1,4.8
		C920.6,406.6,920.9,406.8,921.2,407z"/>
	<path class="st2" d="M589.5,325.4c-1.3,0.2-2.6,0.1-3.9,0.1c-1.3,0-2.6,0-3.8,0s-2.4,0-3.7,0s-2.5-0.1-3.9,0.1
		c-0.1,0.5-0.1,0.9-0.1,1.2c0,8,0,16,0,23.9c0,1.1,0.1,2.1,0.4,3.1c0.6,1.5,1.6,2.5,3.2,3c1.4,0.4,2.9,0.4,4.3,0.2
		c2.3-0.3,4.5-0.8,6.6-1.5c0.5-0.2,1.1-0.3,1.8-0.5c0.3,1.9,0.1,3.7,0.1,5.4c0,1.7,0,3.5,0,5.2c0,1.8,0,3.6,0,5.4
		c-0.3,0.2-0.6,0.3-0.8,0.5c-4.2,1.8-8.5,2.9-13,3.1c-2.6,0.1-5.1,0.2-7.7,0c-2.1-0.2-4.1-0.6-6.1-1.3c-4.1-1.4-6.9-4.2-8.7-8.1
		c-1.2-2.7-1.8-5.5-2.1-8.4c-0.2-2-0.2-4.1-0.2-6.1c0-7.7,0-15.4,0-23.1c0-0.6,0-1.3,0-2c-0.5-0.1-0.9-0.2-1.3-0.2c-1.5,0-3,0-4.5,0
		c-0.5,0-1,0-1.5-0.1c-0.1-0.2-0.3-0.4-0.3-0.5c0-2.8,0-5.6,0-8.4c0.4-0.3,0.8-0.7,1.2-1c2.4-1.7,4.7-3.4,7.1-5.1
		c1-0.7,1.7-1.5,2.1-2.7c1.4-3.5,2.8-6.9,4.3-10.3c0.2-0.5,0.5-1.1,0.7-1.6c1.6-0.3,3.2-0.1,4.7-0.1c1.6,0,3.1,0,4.7,0
		c1.6,0,3.1,0,4.6,0c0.5,0.6,0.4,1.1,0.4,1.6c0,3.1,0,6.3,0,9.4c0,0.6,0,1.1,0.1,1.7c0.6,0.3,1.2,0.2,1.8,0.2c3.8,0,7.7,0,11.5,0
		c0.6,0,1.3,0,2,0.1c0.1,0.3,0.2,0.6,0.2,0.9c0,5,0,9.9,0,14.9C589.6,324.7,589.5,325,589.5,325.4z"/>
	<path class="st2" d="M902.2,355c0.3,1.4,0.4,12.2,0.2,16c-0.3,0.2-0.6,0.4-1,0.6c-4.2,1.8-8.6,2.9-13.2,3.1
		c-2.4,0.1-4.9,0.2-7.3-0.1c-2.2-0.2-4.4-0.6-6.5-1.4c-3.6-1.4-6.3-3.8-8.1-7.3c-1.3-2.6-2-5.5-2.3-8.4c-0.2-2.2-0.3-4.4-0.3-6.6
		c0-7.7,0-15.5,0-23.2c0-0.6,0-1.3,0-2c-0.5-0.1-0.9-0.2-1.3-0.2c-1.5,0-2.9,0-4.4,0c-0.6,0-1.2,0-1.8,0c-0.1-0.3-0.2-0.5-0.2-0.7
		c0-2.7,0-5.5,0-8.3c0.4-0.3,0.8-0.7,1.2-1c2.5-1.8,5-3.6,7.5-5.4c0.7-0.5,1.2-1.2,1.6-2c1.4-3.5,2.9-7,4.3-10.5
		c0.2-0.6,0.5-1.2,0.8-1.8c1.1-0.2,2.3-0.1,3.5-0.1s2.4,0,3.7,0c1.2,0,2.3,0,3.5,0c1.2,0,2.3,0,3.4,0c0.5,0.6,0.4,1.1,0.4,1.6
		c0,3.1,0,6.3,0,9.4c0,0.6,0,1.1,0.1,1.6c0.6,0.4,1.2,0.3,1.8,0.3c4,0,7.9,0,11.9,0c0.6,0,1.2-0.1,1.7,0.2c0.2,1.5,0.2,14.9,0,16.4
		c-0.6,0.2-1.2,0.1-1.8,0.1c-3.8,0-7.7,0-11.5,0c-0.6,0-1.2,0-1.8,0c-0.1,0.5-0.2,0.9-0.2,1.2c0,1.9,0,3.7,0,5.6
		c0,5.9,0,11.8,0,17.6c0,0.9,0.1,1.9,0.2,2.8c0.4,2.3,1.7,3.7,4.1,4.2c1.3,0.3,2.5,0.2,3.8,0c2.3-0.3,4.5-0.8,6.6-1.5
		C901.1,355.3,901.6,355.2,902.2,355z"/>
	<path class="st2" d="M850.1,312.5c-2.2,5.6-4.3,10.9-6.4,16.4c-0.4-0.1-0.7-0.2-1-0.3c-2.1-0.8-4.2-1.7-6.4-2.4
		c-2.7-0.9-5.4-1.2-8.3-1c-3,0.3-5.3,1.7-7,4.1c-1.1,1.6-1.8,3.4-2.2,5.3c-1,4.6-1,9.2,0.1,13.9c0.3,1.3,0.8,2.6,1.5,3.7
		c1.6,2.7,3.9,4.3,7,4.6c3.9,0.5,7.7-0.1,11.4-1.2c2.6-0.8,5-1.9,7.3-3.2c0.5-0.3,1-0.5,1.4-0.8c0.2,0.1,0.2,0.1,0.3,0.1l0.1,0.1
		c0,0.2,0.1,0.5,0.1,0.7c0,5.5,0,10.9,0,16.5c-0.5,0.3-0.9,0.6-1.3,0.9c-3.6,2.2-7.6,3.6-11.7,4.3c-5.6,0.9-11.1,0.8-16.7-0.3
		c-5.5-1.2-10.5-3.5-14.4-7.7c-3.3-3.5-5.4-7.7-6.6-12.4c-1.5-5.6-1.7-11.4-1.2-17.2c0.3-2.9,0.7-5.8,1.6-8.6
		c3.4-10.5,10.6-17.1,21.4-19.5c10.1-2.2,19.9-1.2,29.4,3C848.9,311.9,849.4,312.2,850.1,312.5z"/>
	<path class="st2" d="M694.7,373.4c-0.3,0.1-0.4,0.2-0.6,0.2c-6.8,0-13.6,0-20.4,0c-0.2,0-0.4-0.1-0.7-0.1c-0.1-0.2-0.2-0.4-0.2-0.5
		c0-21.1,0-42.3,0-63.4c0-0.2,0.1-0.4,0.1-0.7c0.3-0.1,0.5-0.2,0.7-0.2c5.1,0,10.2,0,15.5,0c0.2,0.7,0.5,1.2,0.7,1.8
		c0.8,2.5,1.6,5,2.5,7.5c0.1,0.4,0.2,1,0.8,1.1c0.7,0.1,0.9-0.4,1.2-0.8c2.1-3.6,5.1-6.4,8.7-8.4c3.4-1.9,7-2.6,10.8-2.2
		c1.3,0.1,2.6,0.4,3.9,0.5c0.5,0.7,0.2,1.4,0.2,2c-0.2,2.7-0.5,5.3-0.7,8c-0.3,3.3-0.6,6.6-0.9,9.9c0,0.3-0.1,0.7-0.1,1.1
		c-0.5,0-1,0.1-1.4,0c-2.9-0.5-5.8-0.5-8.7-0.3c-1.3,0.1-2.5,0.4-3.8,0.8c-3.1,1-5.2,3-6.3,6.1c-0.7,1.9-1,3.8-1,5.8
		c0,3.8,0,7.6,0,11.4c0,6.2,0,12.5,0,18.7C694.8,372.2,694.8,372.8,694.7,373.4z"/>
	<path class="st2" d="M935.5,373.5c-1.5,0.2-19.9,0.2-21.8,0.1c-0.1-0.3-0.1-0.6-0.2-1c0-0.3,0-0.7,0-1c0-20.2,0-40.4,0-60.6
		c0-0.6,0-1.3,0-2c0.4-0.1,0.7-0.2,1.1-0.2c6.6,0,13.2,0,19.7,0c0.3,0,0.6,0.1,0.9,0.1c0.1,0.3,0.2,0.7,0.2,1c0,0.4,0,0.8,0,1.2
		c0,20.1,0,40.2,0,60.3C935.6,372,935.6,372.7,935.5,373.5z"/>
	<path class="st2" d="M456.2,373.5c-1.5,0.2-19.9,0.2-21.6,0c-0.1-0.3-0.2-0.6-0.2-0.9s0-0.7,0-1c0-20.2,0-40.4,0-60.6
		c0-0.6,0-1.3,0-1.8c0.6-0.6,1.2-0.4,1.8-0.4c4,0,8,0,12.1,0c2.2,0,4.3,0,6.5,0c0.5,0,1.1-0.1,1.5,0.2
		C456.4,310.2,456.4,371.6,456.2,373.5z"/>
	<path class="st2" d="M924.7,282.4c1.6,0.2,3.1,0.3,4.7,0.6c4,0.9,6.3,3.3,6.9,7.4c0.3,1.7,0.2,3.5-0.2,5.2
		c-0.6,2.6-2.2,4.4-4.6,5.6c-3.3,1.6-10.1,1.5-13.3,0.1c-2.4-1.1-4-2.9-4.7-5.5c-0.6-2.4-0.5-4.7,0.1-7.1c0.7-2.6,2.4-4.3,4.9-5.2
		C920.5,282.7,922.6,282.5,924.7,282.4z"/>
	<path class="st2" d="M445.5,282.4c1.6,0.2,3.1,0.3,4.7,0.6c4.1,0.9,6.4,3.5,6.9,7.7c0.2,1.9,0.1,3.7-0.4,5.5
		c-0.7,2.1-2,3.6-3.9,4.7c-1.3,0.7-2.6,1.1-4,1.2c-2.5,0.3-5.1,0.4-7.6-0.2c-0.4-0.1-0.8-0.2-1.2-0.3c-3.4-1.1-5.4-3.4-5.9-6.9
		c-0.3-1.8-0.2-3.7,0.2-5.5c0.7-3,2.5-4.9,5.4-5.9C441.6,282.7,443.5,282.6,445.5,282.4z"/>
	<path class="st3" d="M259,347.1c-5.6,0-11,0-16.9,0c12.9-11.6,18.3-25.5,15.3-42.1c-1.9-10.5-7.3-19.1-15.6-25.7
		c-16.8-13.5-41.2-12.4-56.9,2.5c-15.7,14.9-18,39.2-5.4,56.7c7.1,9.8,16.8,15.8,28.8,17.6c12,1.8,22.9-1.2,32.9-8.4
		c0,39.8,0,79.3,0,119.1c-3.1,0.4-6.1,0.9-9.2,1.2c-10.1,1-20.2,1.2-30.3,0.4c-18.6-1.5-36.5-5.7-53.5-13.3
		c-36.3-16.2-63.5-42-80.7-78c-6.7-14.1-11.1-28.9-12.9-44.5c-5.3-44.4,6.4-84,35.1-118.2c23.7-28.3,54.1-45.8,90.1-53.7
		c14.6-3.2,29.4-4.4,44.3-3.4c42.1,2.7,78.3,18.6,108,48.6c20.9,21.1,34.4,46.2,40.8,75.2c2.2,10.2,3.4,20.5,3.4,30.9
		c0,51.6,0,103.1,0,154.7c0,0.6,0,1.3,0,2.1c-39.1,0-78.1,0-117.3,0c-0.1-20.2,0-40.4-0.1-60.6C259,387.7,259,367.5,259,347.1z"/>
	<path class="st0" d="M243.5,365.1c-21.4-0.3-36.2-17.8-36.2-36.4c0-18.5,14.7-36.2,36.3-36.2c21.2,0,36.4,17.3,36.3,36.4
		C279.9,348,264.7,365,243.5,365.1z"/>
</g>
</svg>
